<svg xmlns="http://www.w3.org/2000/svg" version="1.1" xmlns:xlink="http://www.w3.org/1999/xlink" xmlns:svgjs="http://svgjs.dev/svgjs" width="100%" height="100%" viewBox="0 0 1000 600"><rect width="1000" height="600" x="0" y="0" fill="#eeeeee"/><g><rect width="333.3333333333333" height="333.3333333333333" rx="13.333333333333334" ry="13.333333333333334" y="247.77571807173638" fill="#252323" transform="matrix(0.5541921742544722,0,0,0.5541921742544722,0,70.31924551094431)" x="225.5534210205078"/><path d="M442.15667943902724 434.89693844850916L461.5285085185689 350.8255412498334Q457.1098586832052 350.1817644526281 452.69120884784144 348.806423113144Q448.2725590124777 347.4603443553511 443.4149704517467 345.5582765454263L443.4149704517467 345.5582765454263L443.4149704517467 339.44239697197577L490.6155147195726 339.44239697197577L490.6155147195726 345.5582765454263Q483.4461822052407 348.7186353680706 475.4282348218655 350.8255412498334L475.4282348218655 350.8255412498334L440.25461162910244 486.925808695375L427.2035001948492 489.44239072081393L393.2589054331145 374.85012081826807L359.98735005027623 486.925808695375L347.1410766878611 489.44239072081393L309.83128503164403 350.8255412498334Q305.6174732681184 349.772088308952 301.60849957643075 348.5137972962325Q297.62878846643423 347.2262437018219 293.8246528465846 345.5582765454263L293.8246528465846 345.5582765454263L293.8246528465846 339.44239697197577L348.6042057724186 339.44239697197577L348.6042057724186 345.5582765454263Q344.59523208073097 347.0214056299838 340.3814203172053 348.39674696946787Q336.16760855367966 349.772088308952 331.33928257463975 350.8255412498334L331.33928257463975 350.8255412498334L352.174240738739 435.7162907358614L356.826991227632 463.10606719877836L357.23666737130804 463.10606719877836L364.610837957478 435.30661459218527L393.05406736127645 339.44239697197577L400.2233998756084 339.44239697197577L430.7735351611696 435.30661459218527L436.8894147346201 462.69639105510225L437.29909087829617 462.69639105510225L442.15667943902724 434.89693844850916Z " fill="#26bfca" transform="matrix(0.5541921742544722,0,0,0.5541921742544722,0,70.31924551094431)"/><path d="M780.4655389105939 438.60603102059866L798.5200843651394 360.2514855660532Q794.4019025469574 359.6514855660532 790.2837207287757 358.369667384235Q786.1655389105938 357.11512192968956 781.6382661833211 355.34239465696226L781.6382661833211 355.34239465696226L781.6382661833211 349.6423946569623L825.6291752742302 349.6423946569623L825.6291752742302 355.34239465696226Q818.9473570924121 358.28784920241685 811.4746298196848 360.2514855660532L811.4746298196848 360.2514855660532L778.6928116378666 487.0969401115077L766.5291752742303 489.4423946569623L734.8928116378665 382.64239465696227L703.8837207287756 487.0969401115077L691.9109934560483 489.4423946569623L657.1382661833211 360.2514855660532Q653.2109934560484 359.26966738423505 649.4746298196848 358.09694011150776Q645.7655389105939 356.8969401115077 642.2200843651393 355.34239465696226L642.2200843651393 355.34239465696226L642.2200843651393 349.6423946569623L693.2746298196848 349.6423946569623L693.2746298196848 355.34239465696226Q689.5382661833212 356.70603102059863 685.6109934560484 357.9878492024168Q681.6837207287756 359.26966738423505 677.1837207287756 360.2514855660532L677.1837207287756 360.2514855660532L696.6019025469575 439.369667384235L700.9382661833212 464.8969401115077L701.3200843651393 464.8969401115077L708.1928116378666 438.98784920241684L734.7019025469575 349.6423946569623L741.3837207287756 349.6423946569623L769.8564480015029 438.98784920241684L775.556448001503 464.51512192968954L775.9382661833212 464.51512192968954L780.4655389105939 438.60603102059866ZM897.6837207287757 470.21512192968953L900.4382661833212 473.35148556605316Q898.8564480015029 476.6787582933259 895.5291752742302 479.62421283878047Q892.2019025469575 482.569667384235 887.8655389105938 484.7514855660532Q883.556448001503 486.9060310205987 878.456448001503 488.1878492024168Q873.3291752742302 489.4423946569623 868.0382661833212 489.4423946569623L868.0382661833212 489.4423946569623Q856.447357092412 489.4423946569623 847.6109934560484 485.81512192968955Q838.7746298196847 482.1878492024168 832.8837207287756 475.4242128387805Q826.9928116378666 468.6333037478714 823.9655389105939 459.22421283878043Q820.9109934560483 449.78784920241685 820.9109934560483 438.00603102059864L820.9109934560483 438.00603102059864Q820.9109934560483 412.8605764751441 832.5019025469575 399.71512192968953Q844.0928116378666 386.569667384235 865.2837207287757 386.569667384235L865.2837207287757 386.569667384235Q872.1564480015029 386.569667384235 878.8382661833211 388.4242128387805Q885.5200843651393 390.27875829332595 890.7291752742302 394.61512192968956Q895.9109934560483 398.9242128387805 899.1564480015029 406.0969401115077Q902.4019025469574 413.269667384235 902.4019025469574 423.8787582933259L902.4019025469574 423.8787582933259Q902.4019025469574 427.20603102059863 902.1019025469575 430.64239465696227Q901.8019025469575 434.0787582933259 901.0382661833212 438.00603102059864L901.0382661833212 438.00603102059864L839.756448001503 438.00603102059864Q839.756448001503 446.24239465696223 841.8291752742302 453.4151219296896Q843.8746298196847 460.5878492024168 848.0200843651393 465.8787582933259Q852.1382661833211 471.19694011150773 858.4109934560483 474.22421283878043Q864.7109934560484 477.27875829332595 873.1382661833211 477.27875829332595L873.1382661833211 477.27875829332595Q880.0109934560484 477.27875829332595 887.0746298196848 475.31512192968955Q894.1655389105938 473.35148556605316 897.6837207287757 470.21512192968953L897.6837207287757 470.21512192968953ZM864.4928116378666 395.1878492024168L864.4928116378666 395.1878492024168Q853.3109934560484 395.1878492024168 847.4200843651392 402.769667384235Q841.5291752742302 410.32421283878045 840.3564480015029 429.3605764751441L840.3564480015029 429.3605764751441L883.556448001503 429.3605764751441Q883.747357092412 427.5878492024168 883.8564480015029 425.9242128387805Q883.938266183321 424.2605764751441 883.938266183321 422.6787582933259L883.938266183321 422.6787582933259Q883.938266183321 410.13330374787137 879.2200843651393 402.6605764751441Q874.5291752742303 395.1878492024168 864.4928116378666 395.1878492024168ZM926.7564480015029 481.3969401115077L926.7564480015029 353.1878492024168L911.8382661833211 351.60603102059866L911.8382661833211 346.50603102059864Q917.9200843651392 343.9423946569623 925.4746298196848 342.3878492024168Q933.0291752742303 340.80603102059865 939.5200843651394 339.4423946569623L939.5200843651394 339.4423946569623L944.4291752742301 339.4423946569623L944.4291752742301 408.3605764751441L944.8109934560484 408.3605764751441Q948.1655389105939 398.3514855660532 956.1019025469575 392.4605764751441Q964.0655389105939 386.569667384235 973.6928116378666 386.569667384235L973.6928116378666 386.569667384235Q991.556448001503 386.569667384235 1001.0746298196848 398.7333037478714Q1010.5928116378666 410.8969401115077 1010.5928116378666 436.2333037478714L1010.5928116378666 436.2333037478714Q1010.5928116378666 462.169667384235 997.5291752742303 475.50603102059864Q984.4928116378666 488.869667384235 959.9473570924121 488.869667384235L959.9473570924121 488.869667384235Q955.0382661833212 488.869667384235 950.1291752742302 488.1878492024168Q945.2200843651393 487.4787582933259 940.6928116378666 486.49694011150774Q936.1655389105938 485.51512192968954 932.5382661833212 484.1514855660532Q928.9109934560483 482.78784920241685 926.7564480015029 481.3969401115077L926.7564480015029 481.3969401115077ZM968.3746298196847 398.7333037478714L968.3746298196847 398.7333037478714Q958.9655389105939 398.7333037478714 953.0746298196848 405.11512192968956Q947.1837207287756 411.49694011150774 944.4291752742301 421.31512192968955L944.4291752742301 421.31512192968955L944.4291752742301 476.1060310205986Q947.947357092412 478.069667384235 953.0746298196848 479.13330374787137Q958.1746298196847 480.22421283878043 963.8746298196847 480.22421283878043L963.8746298196847 480.22421283878043Q976.8291752742302 480.22421283878043 984.2746298196848 468.9333037478714Q991.747357092412 457.64239465696227 991.747357092412 436.2333037478714L991.747357092412 436.2333037478714Q991.747357092412 428.569667384235 990.4655389105939 421.69694011150773Q989.1837207287757 414.82421283878045 986.347357092412 409.72421283878043Q983.5109934560485 404.62421283878047 979.0928116378666 401.6787582933259Q974.6746298196848 398.7333037478714 968.3746298196847 398.7333037478714ZM1032.6019025469575 475.9151219296896L1032.6019025469575 475.9151219296896Q1032.6019025469575 470.0242128387805 1036.3109934560484 466.47875829332594Q1040.047357092412 462.9333037478714 1045.938266183321 462.9333037478714L1045.938266183321 462.9333037478714Q1052.0200843651392 462.9333037478714 1055.756448001503 466.47875829332594Q1059.4928116378667 470.0242128387805 1059.4928116378667 475.9151219296896L1059.4928116378667 475.9151219296896Q1059.4928116378667 481.5878492024168 1055.756448001503 485.13330374787137Q1052.0200843651392 488.6787582933259 1045.938266183321 488.6787582933259L1045.938266183321 488.6787582933259Q1040.047357092412 488.6787582933259 1036.3109934560484 485.13330374787137Q1032.6019025469575 481.5878492024168 1032.6019025469575 475.9151219296896ZM1198.9109934560483 438.60603102059866L1216.9655389105938 360.2514855660532Q1212.847357092412 359.6514855660532 1208.7291752742303 358.369667384235Q1204.6109934560484 357.11512192968956 1200.0837207287757 355.34239465696226L1200.0837207287757 355.34239465696226L1200.0837207287757 349.6423946569623L1244.0746298196848 349.6423946569623L1244.0746298196848 355.34239465696226Q1237.3928116378665 358.28784920241685 1229.947357092412 360.2514855660532L1229.947357092412 360.2514855660532L1197.138266183321 487.0969401115077L1184.9746298196847 489.4423946569623L1153.3655389105938 382.64239465696227L1122.3291752742302 487.0969401115077L1110.356448001503 489.4423946569623L1075.5837207287757 360.2514855660532Q1071.6564480015031 359.26966738423505 1067.947357092412 358.09694011150776Q1064.2109934560483 356.8969401115077 1060.6655389105938 355.34239465696226L1060.6655389105938 355.34239465696226L1060.6655389105938 349.6423946569623L1111.7200843651394 349.6423946569623L1111.7200843651394 355.34239465696226Q1107.9837207287756 356.70603102059863 1104.056448001503 357.9878492024168Q1100.1291752742302 359.26966738423505 1095.6291752742302 360.2514855660532L1095.6291752742302 360.2514855660532L1115.0746298196848 439.369667384235L1119.3837207287756 464.8969401115077L1119.765538910594 464.8969401115077L1126.638266183321 438.98784920241684L1153.147357092412 349.6423946569623L1159.8291752742302 349.6423946569623L1188.3019025469575 438.98784920241684L1194.0019025469574 464.51512192968954L1194.3837207287756 464.51512192968954L1198.9109934560483 438.60603102059866ZM1239.356448001503 438.00603102059864L1239.356448001503 438.00603102059864Q1239.356448001503 425.62421283878047 1242.6019025469575 416.10603102059866Q1245.847357092412 406.5878492024168 1251.9291752742304 400.01512192968954Q1258.0109934560485 393.4423946569623 1266.547357092412 390.00603102059864Q1275.1109934560484 386.569667384235 1285.5019025469576 386.569667384235L1285.5019025469576 386.569667384235Q1297.6928116378665 386.569667384235 1306.5291752742303 390.27875829332595Q1315.3655389105938 394.01512192968954 1320.956448001503 400.80603102059865Q1326.547357092412 407.569667384235 1329.1928116378665 417.00603102059864Q1331.8382661833211 426.4151219296896 1331.8382661833211 438.00603102059864L1331.8382661833211 438.00603102059864Q1331.8382661833211 462.7423946569623 1319.2928116378664 476.1060310205986Q1306.7200843651392 489.4423946569623 1285.5019025469576 489.4423946569623L1285.5019025469576 489.4423946569623Q1273.7200843651392 489.4423946569623 1265.0746298196848 485.81512192968955Q1256.456448001503 482.1878492024168 1250.7564480015028 475.4242128387805Q1245.056448001503 468.6333037478714 1242.2200843651394 459.11512192968956Q1239.356448001503 449.5969401115077 1239.356448001503 438.00603102059864ZM1258.2019025469574 438.00603102059864L1258.2019025469574 438.00603102059864Q1258.2019025469574 446.84239465696226 1259.8928116378665 454.69694011150773Q1261.556448001503 462.5514855660532 1265.1837207287756 468.33330374787135Q1268.8109934560482 474.1423946569623 1274.7019025469574 477.469667384235Q1280.5928116378666 480.82421283878045 1288.856448001503 480.82421283878045L1288.856448001503 480.82421283878045Q1299.438266183321 480.82421283878045 1306.22917527423 470.4060310205987Q1312.9928116378667 459.98784920241684 1312.9928116378667 438.00603102059864L1312.9928116378667 438.00603102059864Q1312.9928116378667 428.97875829332594 1311.3291752742302 421.20603102059863Q1309.6655389105938 413.4605764751441 1306.1200843651393 407.6787582933259Q1302.6019025469575 401.869667384235 1297.0928116378666 398.5423946569623Q1291.5837207287757 395.1878492024168 1283.9473570924122 395.1878492024168L1283.9473570924122 395.1878492024168Q1272.356448001503 395.1878492024168 1265.2928116378664 405.60603102059866Q1258.2019025469574 416.0242128387805 1258.2019025469574 438.00603102059864ZM1413.9291752742301 403.64239465696227L1387.8019025469575 403.64239465696227Q1385.647357092412 404.81512192968955 1382.4019025469574 408.4423946569623Q1379.1837207287756 412.0969401115077 1376.6200843651393 419.1605764751441L1376.6200843651393 419.1605764751441L1376.6200843651393 477.469667384235Q1380.547357092412 477.8787582933259 1384.4746298196849 478.9423946569623Q1388.4019025469577 480.03330374787134 1392.3291752742302 482.1878492024168L1392.3291752742302 482.1878492024168L1392.3291752742302 487.0969401115077L1345.9928116378667 487.0969401115077L1345.9928116378667 482.1878492024168Q1349.5109934560485 480.22421283878043 1352.6746298196847 479.2423946569623Q1355.8109934560482 478.2605764751441 1358.9473570924122 477.469667384235L1358.9473570924122 477.469667384235L1358.9473570924122 400.31512192968955L1345.9928116378667 398.7333037478714L1345.9928116378667 393.63330374787137Q1352.265538910594 390.8787582933259 1358.9473570924122 389.21512192968953Q1365.6291752742302 387.5514855660532 1371.7109934560483 386.569667384235L1371.7109934560483 386.569667384235L1376.6200843651393 386.569667384235L1376.6200843651393 407.3787582933259L1377.4109934560483 407.3787582933259Q1379.1837207287756 403.4514855660532 1382.4019025469574 399.52421283878044Q1385.647357092412 395.59694011150776 1389.8746298196847 392.4605764751441Q1394.1019025469575 389.29694011150775 1399.0928116378666 387.63330374787137Q1404.1109934560484 385.96966738423504 1409.4019025469577 386.569667384235L1409.4019025469577 386.569667384235Q1410.7928116378666 389.10603102059866 1411.856448001503 392.16057647514407Q1412.9473570924122 395.1878492024168 1413.9291752742301 398.5423946569623L1413.9291752742301 398.5423946569623L1413.9291752742301 403.64239465696227ZM1466.9473570924122 482.1878492024168L1466.9473570924122 487.0969401115077L1423.3655389105938 487.0969401115077L1423.3655389105938 482.1878492024168Q1429.8291752742302 479.0514855660532 1436.3200843651393 477.469667384235L1436.3200843651393 477.469667384235L1436.3200843651393 353.1878492024168L1421.4019025469574 351.60603102059866L1421.4019025469574 346.50603102059864Q1426.5019025469576 344.13330374787137 1434.1655389105938 342.3878492024168Q1441.8019025469575 340.61512192968956 1449.0837207287757 339.4423946569623L1449.0837207287757 339.4423946569623L1453.9928116378665 339.4423946569623L1453.9928116378665 477.469667384235Q1460.4564480015028 479.0514855660532 1466.9473570924122 482.1878492024168L1466.9473570924122 482.1878492024168ZM1548.4382661833208 467.6514855660532L1547.647357092412 467.6514855660532Q1546.6655389105938 471.98784920241684 1544.320084365139 475.9151219296896Q1541.9473570924122 479.8423946569623 1538.5109934560485 482.869667384235Q1535.0746298196848 485.9242128387805 1530.656448001503 487.69694011150773Q1526.238266183321 489.4423946569623 1521.138266183321 489.4423946569623L1521.138266183321 489.4423946569623Q1501.6928116378665 489.4423946569623 1492.0928116378666 477.0878492024168Q1482.4655389105938 464.70603102059863 1482.4655389105938 438.60603102059866L1482.4655389105938 438.60603102059866Q1482.4655389105938 413.4605764751441 1494.738266183321 400.31512192968955Q1507.0109934560485 387.14239465696227 1527.8200843651393 387.14239465696227L1527.8200843651393 387.14239465696227Q1535.0746298196848 387.14239465696227 1539.2200843651392 387.82421283878045Q1543.3382661833214 388.5333037478714 1548.247357092412 390.27875829332595L1548.247357092412 390.27875829332595L1548.247357092412 353.1878492024168L1533.3291752742302 351.60603102059866L1533.3291752742302 346.50603102059864Q1539.0019025469576 344.13330374787137 1546.5837207287757 342.3878492024168Q1554.138266183321 340.61512192968956 1561.0109934560485 339.4423946569623L1561.0109934560485 339.4423946569623L1565.9200843651392 339.4423946569623L1565.9200843651392 475.9151219296896L1578.8746298196845 477.469667384235L1578.8746298196845 481.5878492024168Q1573.174629819685 484.34239465696226 1567.0928116378666 486.30603102059865Q1561.0109934560485 488.26966738423505 1555.1200843651393 489.0605764751441L1555.1200843651393 489.0605764751441L1550.2109934560483 489.0605764751441L1548.4382661833208 467.6514855660532ZM1525.065538910594 477.27875829332595L1525.065538910594 477.27875829332595Q1534.6928116378665 477.27875829332595 1540.3928116378665 471.19694011150773Q1546.0928116378666 465.11512192968956 1548.247357092412 454.69694011150773L1548.247357092412 454.69694011150773L1548.247357092412 399.33330374787135Q1544.8928116378665 397.369667384235 1540.3928116378665 396.5787582933259Q1535.8655389105938 395.78784920241685 1528.8019025469575 395.78784920241685L1528.8019025469575 395.78784920241685Q1515.4382661833213 395.78784920241685 1508.3746298196845 407.4605764751441Q1501.3109934560482 419.1605764751441 1501.3109934560482 438.60603102059866L1501.3109934560482 438.60603102059866Q1501.3109934560482 446.6514855660532 1502.6746298196847 453.60603102059866Q1504.065538910594 460.5878492024168 1507.0109934560485 465.8787582933259Q1509.956448001503 471.19694011150773 1514.374629819685 474.22421283878043Q1518.7928116378666 477.27875829332595 1525.065538910594 477.27875829332595Z " fill="#26bfca" transform="matrix(0.5541921742544722,0,0,0.5541921742544722,0,70.31924551094431)"/></g></svg>